<svg xmlns="http://www.w3.org/2000/svg" version="1.0" width="1024.000000pt" height="559.000000pt" viewBox="0 0 1024.000000 559.000000" preserveAspectRatio="xMidYMid meet">

<g transform="translate(0.000000,559.000000) scale(0.100000,-0.100000)" fill="#000000" stroke="none">
<path d="M2656 4037 c-66 -122 -178 -330 -249 -462 -71 -132 -146 -271 -167 -310 -51 -95 -302 -560 -356 -661 -24 -44 -44 -83 -44 -86 0 -2 86 -5 191 -6 l190 -1 25 42 c14 23 52 92 84 153 l59 111 88 17 c436 85 837 236 1168 441 232 143 468 352 582 515 19 27 20 28 -82 -41 -361 -241 -953 -478 -1442 -578 -154 -32 -150 -33 -110 42 19 34 74 139 122 232 185 360 209 405 216 397 4 -4 35 -63 70 -132 55 -109 156 -299 165 -308 6 -8 314 103 314 112 0 2 -57 109 -126 237 -69 129 -146 272 -171 319 -25 47 -59 109 -75 138 l-29 52 -152 0 -152 0 -119 -223z"/>
<path d="M5030 4224 c-267 -13 -580 -54 -865 -115 -90 -19 -379 -89 -425 -103 -25 -8 -112 -33 -195 -57 -82 -23 -151 -43 -152 -44 -7 -4 39 -85 47 -85 6 0 77 20 158 44 226 67 718 185 726 174 9 -11 136 -302 133 -305 -2 -2 -33 1 -68 6 -70 10 -65 12 -120 -61 l-20 -28 23 0 c13 0 127 -9 253 -19 660 -56 1187 -73 1883 -59 412 7 517 7 681 -7 395 -31 673 -91 961 -207 236 -94 480 -255 480 -316 0 -15 -23 -78 -51 -141 -69 -154 -70 -168 -25 -229 19 -27 33 -52 29 -56 -3 -3 -155 -6 -336 -6 l-329 0 6 28 c52 234 2 428 -148 578 -116 116 -242 168 -406 168 -160 -1 -283 -50 -397 -158 -144 -136 -212 -350 -168 -531 8 -33 14 -66 15 -72 0 -10 -269 -13 -1315 -13 -723 0 -1315 -2 -1315 -5 0 -3 9 -24 20 -45 l20 -40 1353 -1 c743 0 1364 -3 1380 -5 32 -6 33 -1 7 36 -60 84 -88 213 -71 326 29 196 166 349 356 399 162 42 324 -5 451 -130 71 -71 110 -146 132 -257 20 -102 5 -191 -48 -295 -21 -40 -35 -73 -32 -73 4 0 200 0 435 0 374 1 432 3 462 17 62 30 67 92 11 153 -44 48 -46 59 -19 119 84 184 94 218 83 262 -21 78 -172 200 -375 302 -353 178 -777 277 -1270 296 l-190 8 -250 124 c-642 321 -917 408 -1325 422 -69 2 -154 2 -190 1z m294 -104 c220 -16 439 -72 696 -180 112 -47 546 -252 558 -264 3 -3 -56 -6 -132 -6 l-137 0 -57 39 c-31 21 -81 50 -110 65 -49 25 -61 26 -159 24 -126 -4 -135 -10 -111 -82 9 -25 11 -49 7 -52 -21 -13 -858 22 -1168 49 -134 12 -134 12 -150 42 -34 62 -134 295 -129 300 15 15 315 54 493 65 195 11 247 11 399 0z"/>
<path d="M4055 3447 l-79 -74 78 -139 c43 -76 103 -176 132 -221 89 -135 140 -154 479 -178 121 -8 315 -22 430 -31 116 -8 269 -19 340 -24 144 -10 438 -32 734 -55 107 -8 196 -13 198 -12 1 2 -10 24 -26 49 -34 54 -18 50 -331 73 -294 21 -612 44 -780 55 -147 10 -404 31 -406 34 -6 5 -274 459 -274 464 0 3 35 2 78 -1 42 -4 158 -14 257 -22 99 -8 236 -19 305 -25 69 -5 233 -19 365 -30 132 -11 430 -35 662 -55 233 -19 440 -35 460 -34 32 1 44 8 76 44 l37 42 -92 7 c-86 6 -257 20 -563 46 -66 5 -205 17 -310 25 -104 8 -271 22 -370 30 -99 8 -234 19 -300 25 -66 5 -208 17 -315 25 -107 8 -271 22 -365 30 -93 8 -208 17 -255 20 l-85 6 -80 -74z m332 -44 l42 -6 137 -229 c75 -126 135 -231 132 -233 -7 -7 -263 15 -307 27 -65 17 -107 66 -204 234 -48 84 -87 155 -87 158 0 3 15 20 33 37 32 30 32 30 122 24 50 -3 109 -9 132 -12z"/>
<path d="M7860 3356 c0 -36 103 -144 182 -190 26 -15 71 -34 100 -42 47 -13 259 -45 265 -40 2 1 -23 22 -55 45 -68 51 -306 171 -400 202 -37 12 -73 24 -79 27 -7 2 -13 1 -13 -2z"/>
<path d="M3595 3129 c-38 -22 -104 -56 -145 -75 -41 -20 -77 -38 -79 -39 -3 -4 203 -405 239 -462 l19 -32 191 -3 c108 -2 190 1 190 6 0 5 -20 45 -44 90 -24 45 -61 115 -83 156 -135 253 -206 386 -212 392 -3 3 -37 -11 -76 -33z"/>
<path d="M7820 2313 c-14 -3 -35 -14 -47 -26 -30 -27 -32 -98 -3 -127 59 -59 180 -21 180 57 0 65 -59 108 -130 96z"/>
<path d="M1891 2198 c-10 -24 -55 -122 -99 -218 -43 -96 -123 -272 -177 -390 -53 -118 -101 -223 -106 -232 -9 -17 -2 -18 95 -18 l104 0 43 100 42 100 221 -2 220 -3 41 -95 41 -95 107 -3 107 -3 -24 53 c-25 58 -245 533 -305 663 -20 44 -48 104 -61 133 l-24 52 -103 0 -104 0 -18 -42z m194 -323 c37 -88 70 -166 72 -172 4 -10 -28 -13 -141 -13 -80 0 -146 4 -146 9 0 21 138 347 144 340 2 -2 34 -76 71 -164z"/>
<path d="M4870 1790 l0 -450 340 0 340 0 0 70 0 70 -255 0 -255 0 0 125 0 125 215 0 215 0 0 70 0 70 -215 0 -215 0 0 115 0 115 245 0 245 0 0 70 0 70 -330 0 -330 0 0 -450z"/>
<path d="M3507 2183 c-4 -3 -7 -42 -7 -85 l0 -78 -50 0 -50 0 0 -75 0 -75 49 0 49 0 4 -182 c5 -194 14 -236 61 -286 60 -65 188 -89 292 -57 31 10 59 23 61 30 3 6 -3 29 -12 51 -9 21 -20 49 -25 61 -8 20 -10 21 -53 8 -35 -11 -53 -11 -77 -3 -49 17 -59 54 -59 228 l0 150 90 0 90 0 0 75 0 75 -90 0 -90 0 0 85 0 85 -88 0 c-49 0 -92 -3 -95 -7z"/>
<path d="M7260 2131 c0 -27 -3 -63 -6 -80 -6 -30 -8 -31 -61 -31 l-54 0 3 -62 3 -63 55 -3 55 -3 -3 -158 c-5 -248 15 -314 113 -368 42 -23 62 -28 125 -28 71 0 160 25 160 45 0 4 -10 32 -23 62 -21 52 -24 55 -42 42 -10 -8 -42 -14 -70 -14 -41 0 -56 5 -73 23 -21 22 -22 32 -22 216 0 187 1 192 20 186 11 -3 51 -3 90 1 l70 7 0 58 0 59 -90 0 -90 0 0 80 0 80 -80 0 -80 0 0 -49z"/>
<path d="M4243 2025 c-174 -49 -262 -155 -271 -325 -3 -71 0 -95 19 -144 30 -81 96 -151 179 -190 59 -28 74 -30 170 -30 124 -1 191 21 262 83 160 141 152 418 -16 541 -90 67 -238 95 -343 65z m187 -164 c155 -82 116 -349 -54 -368 -94 -11 -157 21 -197 100 -17 32 -20 54 -17 108 3 57 8 74 34 106 17 21 46 46 65 55 45 24 125 23 169 -1z"/>
<path d="M6641 2030 c-188 -40 -316 -222 -282 -405 23 -123 86 -205 199 -258 62 -29 75 -32 167 -32 90 1 106 4 165 31 76 36 131 92 168 173 21 45 26 72 27 136 0 95 -14 146 -58 212 -35 52 -119 114 -179 132 -54 16 -155 22 -207 11z m164 -149 c76 -35 118 -107 117 -201 -1 -91 -41 -158 -116 -194 -66 -31 -169 -14 -225 37 -54 50 -76 158 -50 238 39 115 165 170 274 120z"/>
<path d="M8362 2030 c-117 -25 -209 -95 -259 -198 -24 -50 -27 -69 -27 -152 0 -83 3 -102 27 -152 35 -71 109 -140 185 -169 87 -34 227 -33 303 2 51 24 120 83 139 120 7 12 -4 23 -52 51 l-61 35 -29 -32 c-44 -51 -90 -68 -165 -62 -52 4 -72 11 -101 34 -78 62 -104 140 -81 235 37 157 250 212 350 91 l24 -29 50 29 c85 49 85 49 27 106 -81 78 -215 115 -330 91z"/>
<path d="M2602 1773 c3 -243 4 -260 25 -299 45 -85 123 -132 235 -141 80 -7 154 14 211 58 l37 30 0 -41 0 -40 90 0 90 0 0 345 0 345 -94 0 -95 0 -3 -212 c-3 -203 -4 -215 -26 -251 -30 -48 -73 -70 -138 -71 -57 0 -93 18 -121 61 -16 23 -18 57 -21 250 l-3 223 -95 0 -95 0 3 -257z"/>
<path d="M5626 2018 c5 -7 59 -81 121 -164 62 -83 113 -156 113 -163 0 -11 -92 -142 -165 -236 -18 -22 -44 -57 -60 -77 l-27 -38 90 0 91 0 87 120 87 119 79 -107 c44 -59 83 -113 87 -120 5 -9 32 -12 99 -10 l91 3 -130 173 -130 174 108 145 c59 80 116 156 126 169 l19 24 -89 0 -88 -1 -75 -100 c-41 -55 -80 -105 -87 -110 -9 -8 -33 18 -94 100 l-81 111 -90 0 c-69 0 -87 -3 -82 -12z"/>
<path d="M7767 2023 c-4 -3 -7 -159 -7 -345 l0 -338 85 0 85 0 0 345 0 345 -78 0 c-43 0 -82 -3 -85 -7z"/>
</g>
</svg>